<mxfile host="drawio-plugin" modified="2022-10-01T16:29:23.160Z" agent="5.0 (Windows NT 6.2; Win64; x64) AppleWebKit/537.36 (KHTML, like Gecko) Chrome/97.0.4692.45 Safari/537.36" version="15.5.4" etag="EfzD_g6z-DeLudRRKNma" type="embed"><diagram id="Y5KKU3RK2Xs_1wjv0H1S" name="Page-1"><mxGraphModel dx="2294" dy="1406" grid="0" gridSize="10" guides="1" tooltips="1" connect="1" arrows="1" fold="1" page="1" pageScale="1" pageWidth="1169" pageHeight="827" background="#F0F0F0" math="0" shadow="0"><root><mxCell id="0"/><mxCell id="1" parent="0"/><mxCell id="2" style="edgeStyle=orthogonalEdgeStyle;rounded=0;orthogonalLoop=1;jettySize=auto;html=1;strokeColor=#788AA3;strokeWidth=2;fontColor=#46495D;startArrow=diamondThin;startFill=0;fillColor=#B2C9AB;" edge="1" parent="1" source="3" target="46"><mxGeometry relative="1" as="geometry"><mxPoint x="980" y="95" as="targetPoint"/><Array as="points"><mxPoint x="660" y="95"/><mxPoint x="660" y="180"/></Array></mxGeometry></mxCell><mxCell id="3" value="AddressBook" style="swimlane;fontStyle=0;childLayout=stackLayout;horizontal=1;startSize=30;horizontalStack=0;resizeParent=1;resizeParentMax=0;resizeLast=0;collapsible=1;marginBottom=0;strokeColor=#788AA3;fontColor=#46495D;fillColor=#B2C9AB;rounded=1;swimlaneFillColor=#FFFFFF;" vertex="1" parent="1"><mxGeometry x="730" y="20" width="140" height="150" as="geometry"/></mxCell><mxCell id="4" value="+name()" style="text;strokeColor=none;fillColor=none;align=left;verticalAlign=middle;spacingLeft=4;spacingRight=4;overflow=hidden;points=[[0,0.5],[1,0.5]];portConstraint=eastwest;rotatable=0;fontColor=#46495D;swimlaneFillColor=default;" vertex="1" parent="3"><mxGeometry y="30" width="140" height="30" as="geometry"/></mxCell><mxCell id="5" value="+add_contact()" style="text;strokeColor=none;fillColor=none;align=left;verticalAlign=middle;spacingLeft=4;spacingRight=4;overflow=hidden;points=[[0,0.5],[1,0.5]];portConstraint=eastwest;rotatable=0;fontColor=#46495D;swimlaneFillColor=default;" vertex="1" parent="3"><mxGeometry y="60" width="140" height="30" as="geometry"/></mxCell><mxCell id="6" value="+change_contact()" style="text;strokeColor=none;fillColor=none;align=left;verticalAlign=middle;spacingLeft=4;spacingRight=4;overflow=hidden;points=[[0,0.5],[1,0.5]];portConstraint=eastwest;rotatable=0;fontColor=#46495D;swimlaneFillColor=default;" vertex="1" parent="3"><mxGeometry y="90" width="140" height="30" as="geometry"/></mxCell><mxCell id="7" value="+check_birthdays()" style="text;strokeColor=none;fillColor=none;align=left;verticalAlign=middle;spacingLeft=4;spacingRight=4;overflow=hidden;points=[[0,0.5],[1,0.5]];portConstraint=eastwest;rotatable=0;fontColor=#46495D;swimlaneFillColor=default;" vertex="1" parent="3"><mxGeometry y="120" width="140" height="30" as="geometry"/></mxCell><mxCell id="8" value="&lt;pre style=&quot;font-family: &amp;quot;JetBrains Mono&amp;quot;, monospace;&quot;&gt;Field&lt;/pre&gt;" style="swimlane;fontStyle=0;childLayout=stackLayout;horizontal=1;startSize=30;horizontalStack=0;resizeParent=1;resizeParentMax=0;resizeLast=0;collapsible=1;marginBottom=0;labelBackgroundColor=none;labelBorderColor=none;spacingTop=1;swimlaneLine=1;glass=0;rounded=1;shadow=0;html=1;fillColor=#B2C9AB;strokeColor=#788AA3;fontColor=#46495D;spacingLeft=0;swimlaneFillColor=#FFFFFF;sketch=0;flipH=1;" vertex="1" parent="1"><mxGeometry x="460" y="522" width="120" height="188" as="geometry"/></mxCell><mxCell id="9" value="- value: None" style="text;html=1;align=left;verticalAlign=middle;resizable=0;points=[];autosize=1;strokeColor=none;fillColor=none;fontColor=#46495D;spacingLeft=4;" vertex="1" parent="8"><mxGeometry y="30" width="120" height="30" as="geometry"/></mxCell><mxCell id="10" value="+ value" style="text;html=1;align=left;verticalAlign=middle;resizable=0;points=[];autosize=1;strokeColor=none;fillColor=none;fontColor=#46495D;spacingLeft=4;" vertex="1" parent="8"><mxGeometry y="60" width="120" height="30" as="geometry"/></mxCell><mxCell id="11" value="" style="line;strokeWidth=1;fillColor=none;align=left;verticalAlign=middle;spacingTop=-1;spacingLeft=3;spacingRight=3;rotatable=0;labelPosition=right;points=[];portConstraint=eastwest;strokeColor=inherit;rounded=1;shadow=0;glass=0;labelBorderColor=none;sketch=0;fontColor=#46495D;" vertex="1" parent="8"><mxGeometry y="90" width="120" height="8" as="geometry"/></mxCell><mxCell id="12" value="+ __str___(): str" style="text;html=1;align=left;verticalAlign=middle;resizable=0;points=[];autosize=1;strokeColor=none;fillColor=none;fontColor=#46495D;spacingLeft=4;labelBorderColor=none;container=0;" vertex="1" parent="8"><mxGeometry y="98" width="120" height="30" as="geometry"/></mxCell><mxCell id="13" value="+&amp;nbsp;__hash__(): int" style="text;html=1;align=left;verticalAlign=middle;resizable=0;points=[];autosize=1;strokeColor=none;fillColor=none;fontColor=#46495D;spacingLeft=4;" vertex="1" parent="8"><mxGeometry y="128" width="120" height="30" as="geometry"/></mxCell><mxCell id="14" value="+ __eq__(): bool" style="text;html=1;align=left;verticalAlign=middle;resizable=0;points=[];autosize=1;strokeColor=none;fillColor=none;fontColor=#46495D;spacingLeft=4;" vertex="1" parent="8"><mxGeometry y="158" width="120" height="30" as="geometry"/></mxCell><mxCell id="15" style="edgeStyle=orthogonalEdgeStyle;rounded=0;orthogonalLoop=1;jettySize=auto;html=1;strokeColor=#788AA3;fontColor=#46495D;fillColor=#B2C9AB;strokeWidth=2;" edge="1" parent="1" source="16" target="8"><mxGeometry relative="1" as="geometry"/></mxCell><mxCell id="16" value="&lt;pre style=&quot;font-family: &amp;quot;JetBrains Mono&amp;quot;, monospace;&quot;&gt;Name&lt;/pre&gt;" style="swimlane;fontStyle=0;childLayout=stackLayout;horizontal=1;startSize=30;horizontalStack=0;resizeParent=1;resizeParentMax=0;resizeLast=0;collapsible=1;marginBottom=0;labelBackgroundColor=none;labelBorderColor=none;spacingTop=1;swimlaneLine=1;glass=0;rounded=1;shadow=0;html=1;fillColor=#B2C9AB;strokeColor=#788AA3;fontColor=#46495D;spacingLeft=0;swimlaneFillColor=#FFFFFF;" vertex="1" parent="1"><mxGeometry x="270" y="738" width="100" height="60" as="geometry"/></mxCell><mxCell id="17" value="+&amp;nbsp;verify_value()" style="text;html=1;align=left;verticalAlign=middle;resizable=0;points=[];autosize=1;strokeColor=none;fillColor=none;fontColor=#46495D;spacingLeft=4;swimlaneFillColor=default;" vertex="1" parent="16"><mxGeometry y="30" width="100" height="30" as="geometry"/></mxCell><mxCell id="18" style="edgeStyle=orthogonalEdgeStyle;rounded=0;orthogonalLoop=1;jettySize=auto;html=1;strokeColor=#788AA3;fontColor=#46495D;fillColor=#B2C9AB;strokeWidth=2;" edge="1" parent="1" source="19" target="8"><mxGeometry relative="1" as="geometry"><mxPoint x="500" y="496" as="targetPoint"/></mxGeometry></mxCell><mxCell id="19" value="&lt;pre style=&quot;font-family: &amp;quot;JetBrains Mono&amp;quot;, monospace;&quot;&gt;Phone&lt;/pre&gt;" style="swimlane;fontStyle=0;childLayout=stackLayout;horizontal=1;startSize=30;horizontalStack=0;resizeParent=1;resizeParentMax=0;resizeLast=0;collapsible=1;marginBottom=0;labelBackgroundColor=none;labelBorderColor=none;spacingTop=1;swimlaneLine=1;glass=0;rounded=1;shadow=0;html=1;fillColor=#B2C9AB;strokeColor=#788AA3;fontColor=#46495D;spacingLeft=0;swimlaneFillColor=#FFFFFF;" vertex="1" parent="1"><mxGeometry x="270" y="450" width="100" height="90" as="geometry"/></mxCell><mxCell id="20" value="+&amp;nbsp;is_valid()" style="text;html=1;align=left;verticalAlign=middle;resizable=0;points=[];autosize=1;strokeColor=none;fillColor=none;fontColor=#46495D;spacingLeft=4;swimlaneFillColor=default;" vertex="1" parent="19"><mxGeometry y="30" width="100" height="30" as="geometry"/></mxCell><mxCell id="21" value="+&amp;nbsp;verify_value()" style="text;html=1;align=left;verticalAlign=middle;resizable=0;points=[];autosize=1;strokeColor=none;fillColor=none;fontColor=#46495D;spacingLeft=4;swimlaneFillColor=default;" vertex="1" parent="19"><mxGeometry y="60" width="100" height="30" as="geometry"/></mxCell><mxCell id="22" style="edgeStyle=orthogonalEdgeStyle;rounded=0;orthogonalLoop=1;jettySize=auto;html=1;strokeColor=#788AA3;fontColor=#46495D;fillColor=#B2C9AB;strokeWidth=2;" edge="1" parent="1" source="23" target="8"><mxGeometry relative="1" as="geometry"/></mxCell><mxCell id="23" value="&lt;pre style=&quot;font-family: &amp;quot;JetBrains Mono&amp;quot;, monospace;&quot;&gt;Birthday&lt;/pre&gt;" style="swimlane;fontStyle=0;childLayout=stackLayout;horizontal=1;startSize=30;horizontalStack=0;resizeParent=1;resizeParentMax=0;resizeLast=0;collapsible=1;marginBottom=0;labelBackgroundColor=none;labelBorderColor=none;spacingTop=1;swimlaneLine=1;glass=0;rounded=1;shadow=0;html=1;fillColor=#B2C9AB;strokeColor=#788AA3;fontColor=#46495D;spacingLeft=0;swimlaneFillColor=#FFFFFF;" vertex="1" parent="1"><mxGeometry x="270" y="570" width="100" height="60" as="geometry"/></mxCell><mxCell id="24" value="+&amp;nbsp;verify_value()" style="text;html=1;align=left;verticalAlign=middle;resizable=0;points=[];autosize=1;strokeColor=none;fillColor=none;fontColor=#46495D;spacingLeft=4;swimlaneFillColor=default;" vertex="1" parent="23"><mxGeometry y="30" width="100" height="30" as="geometry"/></mxCell><mxCell id="25" style="edgeStyle=orthogonalEdgeStyle;rounded=0;orthogonalLoop=1;jettySize=auto;html=1;strokeColor=#788AA3;fontColor=#46495D;fillColor=#B2C9AB;strokeWidth=2;" edge="1" parent="1" source="26" target="8"><mxGeometry relative="1" as="geometry"><mxPoint x="420" y="620" as="targetPoint"/></mxGeometry></mxCell><mxCell id="26" value="&lt;pre style=&quot;font-family: &amp;quot;JetBrains Mono&amp;quot;, monospace;&quot;&gt;Email&lt;/pre&gt;" style="swimlane;fontStyle=0;childLayout=stackLayout;horizontal=1;startSize=30;horizontalStack=0;resizeParent=1;resizeParentMax=0;resizeLast=0;collapsible=1;marginBottom=0;labelBackgroundColor=none;labelBorderColor=none;spacingTop=1;swimlaneLine=1;glass=0;rounded=1;shadow=0;html=1;fillColor=#B2C9AB;strokeColor=#788AA3;fontColor=#46495D;spacingLeft=0;swimlaneFillColor=#FFFFFF;" vertex="1" parent="1"><mxGeometry x="270" y="650" width="100" height="60" as="geometry"/></mxCell><mxCell id="27" value="+&amp;nbsp;is_valid()" style="text;html=1;align=left;verticalAlign=middle;resizable=0;points=[];autosize=1;strokeColor=none;fillColor=none;fontColor=#46495D;spacingLeft=4;swimlaneFillColor=default;" vertex="1" parent="26"><mxGeometry y="30" width="100" height="30" as="geometry"/></mxCell><mxCell id="28" style="edgeStyle=orthogonalEdgeStyle;rounded=0;orthogonalLoop=1;jettySize=auto;html=1;strokeColor=#788AA3;fontColor=#46495D;fillColor=#B2C9AB;strokeWidth=2;" edge="1" parent="1" source="31" target="19"><mxGeometry relative="1" as="geometry"/></mxCell><mxCell id="29" style="edgeStyle=orthogonalEdgeStyle;rounded=0;orthogonalLoop=1;jettySize=auto;html=1;strokeColor=#788AA3;fontColor=#46495D;fillColor=#B2C9AB;strokeWidth=2;" edge="1" parent="1" source="31" target="23"><mxGeometry relative="1" as="geometry"/></mxCell><mxCell id="30" style="edgeStyle=orthogonalEdgeStyle;rounded=0;orthogonalLoop=1;jettySize=auto;html=1;strokeColor=#788AA3;fontColor=#46495D;fillColor=#B2C9AB;startArrow=diamondThin;startFill=0;strokeWidth=2;" edge="1" parent="1" source="31" target="26"><mxGeometry relative="1" as="geometry"><mxPoint x="210" y="710" as="sourcePoint"/></mxGeometry></mxCell><mxCell id="31" value="&lt;pre style=&quot;font-family: &amp;quot;JetBrains Mono&amp;quot;, monospace;&quot;&gt;Record&lt;/pre&gt;" style="swimlane;fontStyle=0;childLayout=stackLayout;horizontal=1;startSize=30;horizontalStack=0;resizeParent=1;resizeParentMax=0;resizeLast=0;collapsible=1;marginBottom=0;labelBackgroundColor=none;labelBorderColor=none;spacingTop=1;swimlaneLine=1;glass=0;rounded=1;shadow=0;html=1;fillColor=#B2C9AB;strokeColor=#788AA3;fontColor=#46495D;spacingLeft=0;swimlaneFillColor=#FFFFFF;sketch=0;flipH=1;" vertex="1" parent="1"><mxGeometry x="30" y="460" width="160" height="338" as="geometry"/></mxCell><mxCell id="32" value="+ name" style="text;html=1;align=left;verticalAlign=middle;resizable=0;points=[];autosize=1;strokeColor=none;fillColor=none;fontColor=#46495D;spacingLeft=4;swimlaneFillColor=default;" vertex="1" parent="31"><mxGeometry y="30" width="160" height="30" as="geometry"/></mxCell><mxCell id="33" value="+ phone" style="text;html=1;align=left;verticalAlign=middle;resizable=0;points=[];autosize=1;strokeColor=none;fillColor=none;fontColor=#46495D;spacingLeft=4;swimlaneFillColor=default;" vertex="1" parent="31"><mxGeometry y="60" width="160" height="30" as="geometry"/></mxCell><mxCell id="34" value="+ birthday" style="text;html=1;align=left;verticalAlign=middle;resizable=0;points=[];autosize=1;strokeColor=none;fillColor=none;fontColor=#46495D;spacingLeft=4;swimlaneFillColor=default;" vertex="1" parent="31"><mxGeometry y="90" width="160" height="30" as="geometry"/></mxCell><mxCell id="35" value="+ email" style="text;html=1;align=left;verticalAlign=middle;resizable=0;points=[];autosize=1;strokeColor=none;fillColor=none;fontColor=#46495D;spacingLeft=4;swimlaneFillColor=default;" vertex="1" parent="31"><mxGeometry y="120" width="160" height="30" as="geometry"/></mxCell><mxCell id="36" value="" style="line;strokeWidth=1;fillColor=none;align=left;verticalAlign=middle;spacingTop=-1;spacingLeft=3;spacingRight=3;rotatable=0;labelPosition=right;points=[];portConstraint=eastwest;strokeColor=inherit;rounded=1;shadow=0;glass=0;labelBorderColor=none;sketch=0;fontColor=#46495D;swimlaneFillColor=default;" vertex="1" parent="31"><mxGeometry y="150" width="160" height="8" as="geometry"/></mxCell><mxCell id="37" value="+&amp;nbsp;add_phone()" style="text;html=1;align=left;verticalAlign=middle;resizable=0;points=[];autosize=1;strokeColor=none;fillColor=none;fontColor=#46495D;spacingLeft=4;labelBorderColor=none;container=0;swimlaneFillColor=default;" vertex="1" parent="31"><mxGeometry y="158" width="160" height="30" as="geometry"/></mxCell><mxCell id="38" value="+&amp;nbsp;count_days_to_birthday()" style="text;html=1;align=left;verticalAlign=middle;resizable=0;points=[];autosize=1;strokeColor=none;fillColor=none;fontColor=#46495D;spacingLeft=4;labelBorderColor=none;container=0;swimlaneFillColor=default;" vertex="1" parent="31"><mxGeometry y="188" width="160" height="30" as="geometry"/></mxCell><mxCell id="39" value="+&amp;nbsp;add_birthday()" style="text;html=1;align=left;verticalAlign=middle;resizable=0;points=[];autosize=1;strokeColor=none;fillColor=none;fontColor=#46495D;spacingLeft=4;labelBorderColor=none;container=0;swimlaneFillColor=default;" vertex="1" parent="31"><mxGeometry y="218" width="160" height="30" as="geometry"/></mxCell><mxCell id="40" value="+&amp;nbsp;add_email()" style="text;html=1;align=left;verticalAlign=middle;resizable=0;points=[];autosize=1;strokeColor=none;fillColor=none;fontColor=#46495D;spacingLeft=4;labelBorderColor=none;container=0;swimlaneFillColor=default;" vertex="1" parent="31"><mxGeometry y="248" width="160" height="30" as="geometry"/></mxCell><mxCell id="41" value="+&amp;nbsp;add_address()" style="text;html=1;align=left;verticalAlign=middle;resizable=0;points=[];autosize=1;strokeColor=none;fillColor=none;fontColor=#46495D;spacingLeft=4;labelBorderColor=none;container=0;swimlaneFillColor=default;" vertex="1" parent="31"><mxGeometry y="278" width="160" height="30" as="geometry"/></mxCell><mxCell id="42" value="+&amp;nbsp;__str()" style="text;html=1;align=left;verticalAlign=middle;resizable=0;points=[];autosize=1;strokeColor=none;fillColor=none;fontColor=#46495D;spacingLeft=4;labelBorderColor=none;container=0;swimlaneFillColor=default;" vertex="1" parent="31"><mxGeometry y="308" width="160" height="30" as="geometry"/></mxCell><mxCell id="43" style="edgeStyle=orthogonalEdgeStyle;rounded=0;orthogonalLoop=1;jettySize=auto;html=1;strokeColor=#788AA3;fontColor=#46495D;fillColor=#B2C9AB;startArrow=diamondThin;startFill=0;strokeWidth=2;" edge="1" parent="1" source="31" target="16"><mxGeometry relative="1" as="geometry"><mxPoint x="420" y="690" as="sourcePoint"/><mxPoint x="510" y="566" as="targetPoint"/><Array as="points"/></mxGeometry></mxCell><mxCell id="44" style="edgeStyle=orthogonalEdgeStyle;rounded=0;orthogonalLoop=1;jettySize=auto;html=1;strokeColor=#788AA3;strokeWidth=2;fontColor=#46495D;startArrow=diamondThin;startFill=0;fillColor=#B2C9AB;" edge="1" parent="1" source="46" target="31"><mxGeometry relative="1" as="geometry"><Array as="points"><mxPoint x="510" y="410"/><mxPoint x="110" y="410"/></Array></mxGeometry></mxCell><mxCell id="45" style="edgeStyle=orthogonalEdgeStyle;rounded=0;orthogonalLoop=1;jettySize=auto;html=1;strokeColor=#788AA3;strokeWidth=2;fontColor=#46495D;startArrow=diamondThin;startFill=0;fillColor=#B2C9AB;" edge="1" parent="1" source="46" target="63"><mxGeometry relative="1" as="geometry"><Array as="points"><mxPoint x="510" y="410"/><mxPoint x="1053" y="410"/></Array></mxGeometry></mxCell><mxCell id="46" value="&lt;pre style=&quot;font-family: &amp;quot;JetBrains Mono&amp;quot;, monospace;&quot;&gt;RecordContainer&lt;/pre&gt;" style="swimlane;fontStyle=0;childLayout=stackLayout;horizontal=1;startSize=30;horizontalStack=0;resizeParent=1;resizeParentMax=0;resizeLast=0;collapsible=1;marginBottom=0;labelBackgroundColor=none;labelBorderColor=none;spacingTop=1;swimlaneLine=1;glass=0;rounded=1;shadow=0;html=1;fillColor=#B2C9AB;strokeColor=#788AA3;fontColor=#46495D;spacingLeft=0;swimlaneFillColor=#FFFFFF;sketch=0;flipH=1;" vertex="1" parent="1"><mxGeometry x="425" y="70" width="160" height="278" as="geometry"/></mxCell><mxCell id="47" value="+ data" style="text;html=1;align=left;verticalAlign=middle;resizable=0;points=[];autosize=1;strokeColor=none;fillColor=none;fontColor=#46495D;spacingLeft=4;swimlaneFillColor=default;" vertex="1" parent="46"><mxGeometry y="30" width="160" height="30" as="geometry"/></mxCell><mxCell id="48" value="" style="line;strokeWidth=1;fillColor=none;align=left;verticalAlign=middle;spacingTop=-1;spacingLeft=3;spacingRight=3;rotatable=0;labelPosition=right;points=[];portConstraint=eastwest;strokeColor=inherit;rounded=1;shadow=0;glass=0;labelBorderColor=none;sketch=0;fontColor=#46495D;swimlaneFillColor=default;" vertex="1" parent="46"><mxGeometry y="60" width="160" height="8" as="geometry"/></mxCell><mxCell id="49" value="+&amp;nbsp;load_data()" style="text;html=1;align=left;verticalAlign=middle;resizable=0;points=[];autosize=1;strokeColor=none;fillColor=none;fontColor=#46495D;spacingLeft=4;labelBorderColor=none;container=0;swimlaneFillColor=default;" vertex="1" parent="46"><mxGeometry y="68" width="160" height="30" as="geometry"/></mxCell><mxCell id="50" value="+&amp;nbsp;backup_data()" style="text;html=1;align=left;verticalAlign=middle;resizable=0;points=[];autosize=1;strokeColor=none;fillColor=none;fontColor=#46495D;spacingLeft=4;labelBorderColor=none;container=0;swimlaneFillColor=default;" vertex="1" parent="46"><mxGeometry y="98" width="160" height="30" as="geometry"/></mxCell><mxCell id="51" value="+&amp;nbsp;add_record()" style="text;html=1;align=left;verticalAlign=middle;resizable=0;points=[];autosize=1;strokeColor=none;fillColor=none;fontColor=#46495D;spacingLeft=4;labelBorderColor=none;container=0;swimlaneFillColor=default;" vertex="1" parent="46"><mxGeometry y="128" width="160" height="30" as="geometry"/></mxCell><mxCell id="52" value="+&amp;nbsp;remove_record()" style="text;html=1;align=left;verticalAlign=middle;resizable=0;points=[];autosize=1;strokeColor=none;fillColor=none;fontColor=#46495D;spacingLeft=4;labelBorderColor=none;container=0;swimlaneFillColor=default;" vertex="1" parent="46"><mxGeometry y="158" width="160" height="30" as="geometry"/></mxCell><mxCell id="53" value="+&amp;nbsp;record_exists()" style="text;html=1;align=left;verticalAlign=middle;resizable=0;points=[];autosize=1;strokeColor=none;fillColor=none;fontColor=#46495D;spacingLeft=4;labelBorderColor=none;container=0;swimlaneFillColor=default;" vertex="1" parent="46"><mxGeometry y="188" width="160" height="30" as="geometry"/></mxCell><mxCell id="54" value="+ show_all()" style="text;html=1;align=left;verticalAlign=middle;resizable=0;points=[];autosize=1;strokeColor=none;fillColor=none;fontColor=#46495D;spacingLeft=4;labelBorderColor=none;container=0;swimlaneFillColor=default;" vertex="1" parent="46"><mxGeometry y="218" width="160" height="30" as="geometry"/></mxCell><mxCell id="55" value="+search_record()" style="text;html=1;align=left;verticalAlign=middle;resizable=0;points=[];autosize=1;strokeColor=none;fillColor=none;fontColor=#46495D;spacingLeft=4;labelBorderColor=none;container=0;swimlaneFillColor=default;" vertex="1" parent="46"><mxGeometry y="248" width="160" height="30" as="geometry"/></mxCell><mxCell id="56" value="NoteBook" style="swimlane;fontStyle=0;childLayout=stackLayout;horizontal=1;startSize=30;horizontalStack=0;resizeParent=1;resizeParentMax=0;resizeLast=0;collapsible=1;marginBottom=0;strokeColor=#788AA3;fontColor=#46495D;fillColor=#B2C9AB;rounded=1;swimlaneFillColor=#FFFFFF;" vertex="1" parent="1"><mxGeometry x="730" y="220" width="140" height="150" as="geometry"/></mxCell><mxCell id="57" value="+name()" style="text;strokeColor=none;fillColor=none;align=left;verticalAlign=middle;spacingLeft=4;spacingRight=4;overflow=hidden;points=[[0,0.5],[1,0.5]];portConstraint=eastwest;rotatable=0;fontColor=#46495D;swimlaneFillColor=default;" vertex="1" parent="56"><mxGeometry y="30" width="140" height="30" as="geometry"/></mxCell><mxCell id="58" value="+make_note()" style="text;strokeColor=none;fillColor=none;align=left;verticalAlign=middle;spacingLeft=4;spacingRight=4;overflow=hidden;points=[[0,0.5],[1,0.5]];portConstraint=eastwest;rotatable=0;fontColor=#46495D;swimlaneFillColor=default;" vertex="1" parent="56"><mxGeometry y="60" width="140" height="30" as="geometry"/></mxCell><mxCell id="59" value="+change_note()" style="text;strokeColor=none;fillColor=none;align=left;verticalAlign=middle;spacingLeft=4;spacingRight=4;overflow=hidden;points=[[0,0.5],[1,0.5]];portConstraint=eastwest;rotatable=0;fontColor=#46495D;swimlaneFillColor=default;" vertex="1" parent="56"><mxGeometry y="90" width="140" height="30" as="geometry"/></mxCell><mxCell id="60" value="+check_birthdays()" style="text;strokeColor=none;fillColor=none;align=left;verticalAlign=middle;spacingLeft=4;spacingRight=4;overflow=hidden;points=[[0,0.5],[1,0.5]];portConstraint=eastwest;rotatable=0;fontColor=#46495D;swimlaneFillColor=default;" vertex="1" parent="56"><mxGeometry y="120" width="140" height="30" as="geometry"/></mxCell><mxCell id="61" style="edgeStyle=orthogonalEdgeStyle;rounded=0;orthogonalLoop=1;jettySize=auto;html=1;strokeColor=#788AA3;strokeWidth=2;fontColor=#46495D;startArrow=diamondThin;startFill=0;fillColor=#B2C9AB;" edge="1" parent="1" source="58" target="46"><mxGeometry relative="1" as="geometry"/></mxCell><mxCell id="62" style="edgeStyle=orthogonalEdgeStyle;rounded=0;orthogonalLoop=1;jettySize=auto;html=1;strokeColor=#788AA3;strokeWidth=2;fontColor=#46495D;startArrow=diamondThin;startFill=0;fillColor=#B2C9AB;" edge="1" parent="1" source="63" target="77"><mxGeometry relative="1" as="geometry"><Array as="points"><mxPoint x="947" y="574"/><mxPoint x="947" y="574"/></Array></mxGeometry></mxCell><mxCell id="63" value="&lt;pre style=&quot;font-family: &amp;quot;JetBrains Mono&amp;quot;, monospace;&quot;&gt;NoteRecord&lt;/pre&gt;" style="swimlane;fontStyle=0;childLayout=stackLayout;horizontal=1;startSize=30;horizontalStack=0;resizeParent=1;resizeParentMax=0;resizeLast=0;collapsible=1;marginBottom=0;labelBackgroundColor=none;labelBorderColor=none;spacingTop=1;swimlaneLine=1;glass=0;rounded=1;shadow=0;html=1;fillColor=#B2C9AB;strokeColor=#788AA3;fontColor=#46495D;spacingLeft=0;swimlaneFillColor=#FFFFFF;sketch=0;flipH=1;" vertex="1" parent="1"><mxGeometry x="973" y="466" width="160" height="278" as="geometry"/></mxCell><mxCell id="64" value="+ name" style="text;html=1;align=left;verticalAlign=middle;resizable=0;points=[];autosize=1;strokeColor=none;fillColor=none;fontColor=#46495D;spacingLeft=4;" vertex="1" parent="63"><mxGeometry y="30" width="160" height="30" as="geometry"/></mxCell><mxCell id="65" value="+ text" style="text;html=1;align=left;verticalAlign=middle;resizable=0;points=[];autosize=1;strokeColor=none;fillColor=none;fontColor=#46495D;spacingLeft=4;" vertex="1" parent="63"><mxGeometry y="60" width="160" height="30" as="geometry"/></mxCell><mxCell id="66" value="+ tags" style="text;html=1;align=left;verticalAlign=middle;resizable=0;points=[];autosize=1;strokeColor=none;fillColor=none;fontColor=#46495D;spacingLeft=4;" vertex="1" parent="63"><mxGeometry y="90" width="160" height="30" as="geometry"/></mxCell><mxCell id="67" value="+ created" style="text;html=1;align=left;verticalAlign=middle;resizable=0;points=[];autosize=1;strokeColor=none;fillColor=none;fontColor=#46495D;spacingLeft=4;" vertex="1" parent="63"><mxGeometry y="120" width="160" height="30" as="geometry"/></mxCell><mxCell id="68" value="" style="line;strokeWidth=1;fillColor=none;align=left;verticalAlign=middle;spacingTop=-1;spacingLeft=3;spacingRight=3;rotatable=0;labelPosition=right;points=[];portConstraint=eastwest;strokeColor=inherit;rounded=1;shadow=0;glass=0;labelBorderColor=none;sketch=0;fontColor=#46495D;" vertex="1" parent="63"><mxGeometry y="150" width="160" height="8" as="geometry"/></mxCell><mxCell id="69" value="+&amp;nbsp;change_title()" style="text;html=1;align=left;verticalAlign=middle;resizable=0;points=[];autosize=1;strokeColor=none;fillColor=none;fontColor=#46495D;spacingLeft=4;labelBorderColor=none;container=0;" vertex="1" parent="63"><mxGeometry y="158" width="160" height="30" as="geometry"/></mxCell><mxCell id="70" value="+&amp;nbsp;change_tags()" style="text;html=1;align=left;verticalAlign=middle;resizable=0;points=[];autosize=1;strokeColor=none;fillColor=none;fontColor=#46495D;spacingLeft=4;labelBorderColor=none;container=0;" vertex="1" parent="63"><mxGeometry y="188" width="160" height="30" as="geometry"/></mxCell><mxCell id="71" value="+&amp;nbsp;change_text()" style="text;html=1;align=left;verticalAlign=middle;resizable=0;points=[];autosize=1;strokeColor=none;fillColor=none;fontColor=#46495D;spacingLeft=4;labelBorderColor=none;container=0;" vertex="1" parent="63"><mxGeometry y="218" width="160" height="30" as="geometry"/></mxCell><mxCell id="72" value="+&amp;nbsp;__str()" style="text;html=1;align=left;verticalAlign=middle;resizable=0;points=[];autosize=1;strokeColor=none;fillColor=none;fontColor=#46495D;spacingLeft=4;labelBorderColor=none;container=0;" vertex="1" parent="63"><mxGeometry y="248" width="160" height="30" as="geometry"/></mxCell><mxCell id="73" value="&lt;pre style=&quot;font-family: &amp;quot;JetBrains Mono&amp;quot;, monospace;&quot;&gt;Field&lt;/pre&gt;" style="swimlane;fontStyle=0;childLayout=stackLayout;horizontal=1;startSize=30;horizontalStack=0;resizeParent=1;resizeParentMax=0;resizeLast=0;collapsible=1;marginBottom=0;labelBackgroundColor=none;labelBorderColor=none;spacingTop=1;swimlaneLine=1;glass=0;rounded=1;shadow=0;html=1;fillColor=#B2C9AB;strokeColor=#788AA3;fontColor=#46495D;spacingLeft=0;swimlaneFillColor=#FFFFFF;sketch=0;flipH=1;" vertex="1" parent="1"><mxGeometry x="640" y="529" width="120" height="90" as="geometry"/></mxCell><mxCell id="74" value="- value: None" style="text;html=1;align=left;verticalAlign=middle;resizable=0;points=[];autosize=1;strokeColor=none;fillColor=none;fontColor=#46495D;spacingLeft=4;" vertex="1" parent="73"><mxGeometry y="30" width="120" height="30" as="geometry"/></mxCell><mxCell id="75" value="+ value" style="text;html=1;align=left;verticalAlign=middle;resizable=0;points=[];autosize=1;strokeColor=none;fillColor=none;fontColor=#46495D;spacingLeft=4;" vertex="1" parent="73"><mxGeometry y="60" width="120" height="30" as="geometry"/></mxCell><mxCell id="76" style="edgeStyle=orthogonalEdgeStyle;rounded=0;orthogonalLoop=1;jettySize=auto;html=1;strokeColor=#788AA3;strokeWidth=2;fontColor=#46495D;startArrow=none;startFill=0;fillColor=#B2C9AB;" edge="1" parent="1" source="77" target="74"><mxGeometry relative="1" as="geometry"/></mxCell><mxCell id="77" value="&lt;pre style=&quot;font-family: &amp;quot;JetBrains Mono&amp;quot;, monospace;&quot;&gt;Title&lt;/pre&gt;" style="swimlane;fontStyle=0;childLayout=stackLayout;horizontal=1;startSize=30;horizontalStack=0;resizeParent=1;resizeParentMax=0;resizeLast=0;collapsible=1;marginBottom=0;labelBackgroundColor=none;labelBorderColor=none;spacingTop=1;swimlaneLine=1;glass=0;rounded=1;shadow=0;html=1;fillColor=#B2C9AB;strokeColor=#788AA3;fontColor=#46495D;spacingLeft=0;swimlaneFillColor=#FFFFFF;" vertex="1" parent="1"><mxGeometry x="819" y="510" width="100" height="128" as="geometry"/></mxCell><mxCell id="78" value="+&amp;nbsp;value" style="text;html=1;align=left;verticalAlign=middle;resizable=0;points=[];autosize=1;strokeColor=none;fillColor=none;fontColor=#46495D;spacingLeft=4;" vertex="1" parent="77"><mxGeometry y="30" width="100" height="30" as="geometry"/></mxCell><mxCell id="79" value="" style="line;strokeWidth=1;fillColor=none;align=left;verticalAlign=middle;spacingTop=-1;spacingLeft=3;spacingRight=3;rotatable=0;labelPosition=right;points=[];portConstraint=eastwest;strokeColor=inherit;rounded=1;shadow=0;glass=0;labelBorderColor=none;sketch=0;fontColor=#46495D;" vertex="1" parent="77"><mxGeometry y="60" width="100" height="8" as="geometry"/></mxCell><mxCell id="80" value="+ __eq__()" style="text;html=1;align=left;verticalAlign=middle;resizable=0;points=[];autosize=1;strokeColor=none;fillColor=none;fontColor=#46495D;spacingLeft=4;" vertex="1" parent="77"><mxGeometry y="68" width="100" height="30" as="geometry"/></mxCell><mxCell id="81" value="+&amp;nbsp;__hash__()" style="text;html=1;align=left;verticalAlign=middle;resizable=0;points=[];autosize=1;strokeColor=none;fillColor=none;fontColor=#46495D;spacingLeft=4;" vertex="1" parent="77"><mxGeometry y="98" width="100" height="30" as="geometry"/></mxCell><mxCell id="82" value="Collection" style="shape=folder;fontStyle=1;tabWidth=150;tabHeight=31;tabPosition=left;html=1;boundedLbl=1;labelInHeader=1;container=1;collapsible=0;rounded=1;shadow=0;glass=0;labelBorderColor=none;sketch=0;strokeColor=#d6b656;fillColor=#fff2cc;fontColor=#000000;" vertex="1" parent="1"><mxGeometry x="105" y="173.5" width="150" height="71" as="geometry"/></mxCell><mxCell id="83" value="UserDict" style="html=1;strokeColor=none;resizeWidth=1;resizeHeight=1;fillColor=none;part=1;connectable=0;allowArrows=0;deletable=0;rounded=1;shadow=0;glass=0;labelBorderColor=none;sketch=0;fontColor=#46495D;" vertex="1" parent="82"><mxGeometry width="150" height="49.7" relative="1" as="geometry"><mxPoint y="30" as="offset"/></mxGeometry></mxCell><mxCell id="84" style="edgeStyle=orthogonalEdgeStyle;rounded=0;orthogonalLoop=1;jettySize=auto;html=1;strokeColor=#788AA3;strokeWidth=2;fontColor=#46495D;startArrow=none;startFill=0;fillColor=#B2C9AB;" edge="1" parent="1" source="46" target="82"><mxGeometry relative="1" as="geometry"><mxPoint x="755" y="554" as="sourcePoint"/><mxPoint x="675" y="554" as="targetPoint"/></mxGeometry></mxCell><mxCell id="85" style="edgeStyle=orthogonalEdgeStyle;rounded=0;orthogonalLoop=1;jettySize=auto;html=1;strokeColor=#788AA3;strokeWidth=2;fontColor=#46495D;startArrow=none;startFill=0;fillColor=#B2C9AB;" edge="1" parent="1" source="87" target="3"><mxGeometry relative="1" as="geometry"><Array as="points"><mxPoint x="1045" y="90"/></Array></mxGeometry></mxCell><mxCell id="86" style="edgeStyle=orthogonalEdgeStyle;rounded=0;orthogonalLoop=1;jettySize=auto;html=1;strokeColor=#788AA3;strokeWidth=2;fontColor=#46495D;startArrow=none;startFill=0;fillColor=#B2C9AB;" edge="1" parent="1" source="87" target="56"><mxGeometry relative="1" as="geometry"><Array as="points"><mxPoint x="1045" y="295"/></Array></mxGeometry></mxCell><mxCell id="87" value="BotFeature" style="html=1;rounded=1;shadow=0;glass=0;labelBorderColor=none;sketch=0;strokeColor=#d6b656;fillColor=#fff2cc;fontColor=#000000;" vertex="1" parent="1"><mxGeometry x="990" y="173.5" width="110" height="43.5" as="geometry"/></mxCell></root></mxGraphModel></diagram></mxfile>